# ASF file generated by Tido's ASF writer for MATLAB.
:version 1.10
:name VICON
:units
  mass 1
  length 0.45000000000000001
  angle deg
:documentation
   .ast/.asf automatically generated from VICON data using
   VICON BodyBuilder and BodyLanguage model FoxedUp or BRILLIANT.MOD
:root
  axis xyz
  order tx ty tz rx ry rz 
  position 0 0 0
  orientation 0 0 0
:bonedata
  begin
    id 1
    name lhipjoint
    direction 0.44017800000000001 -0.82263900000000001 0.359871
    length 1.1390085000000001
    axis 0 0 0 xyz
  end
  begin
    id 2
    name lfemur
    direction 0.34201999999999999 -0.939693 0
    length 3.5465939999999998
    axis 0 0 20 xyz
    dof rx ry rz 
    limits (-160 20)
           (-70 70)
           (-60 70)
  end
  begin
    id 3
    name ltibia
    direction 0.34201999999999999 -0.939693 0
    length 3.7970234999999999
    axis 0 0 20 xyz
    dof rx 
    limits (-10 170)
  end
  begin
    id 4
    name lfoot
    direction 0.088635099999999994 -0.24352299999999999 0.96583699999999995
    length 1.1853629999999999
    axis -90 7.62852e-016 20 xyz
    dof rx rz 
    limits (-45 90)
           (-70 20)
  end
  begin
    id 5
    name ltoes
    direction 1.53703e-011 -4.2171700000000001e-011 1
    length 0.59142150000000004
    axis -90 7.62852e-016 20 xyz
    dof rx 
    limits (-90 20)
  end
  begin
    id 6
    name rhipjoint
    direction -0.399779 -0.83977299999999999 0.367367
    length 1.115766
    axis 0 0 0 xyz
  end
  begin
    id 7
    name rfemur
    direction -0.34201999999999999 -0.939693 0
    length 3.4866269999999999
    axis 0 0 -20 xyz
    dof rx ry rz 
    limits (-160 20)
           (-70 70)
           (-70 60)
  end
  begin
    id 8
    name rtibia
    direction -0.34201999999999999 -0.939693 0
    length 3.9349440000000002
    axis 0 0 -20 xyz
    dof rx 
    limits (-10 170)
  end
  begin
    id 9
    name rfoot
    direction -0.108514 -0.29813899999999999 0.94833400000000001
    length 1.1974590000000001
    axis -90 -7.62852e-016 -20 xyz
    dof rx rz 
    limits (-45 90)
           (-20 70)
  end
  begin
    id 10
    name rtoes
    direction -1.5339199999999999e-011 -4.2207699999999999e-011 1
    length 0.59392350000000005
    axis -90 -7.62852e-016 -20 xyz
    dof rx 
    limits (-90 20)
  end
  begin
    id 11
    name lowerback
    direction 0.011325699999999999 0.99986600000000003 0.0118602
    length 1.164123
    axis 0 0 0 xyz
    dof rx ry rz 
    limits (-20 45)
           (-30 30)
           (-30 30)
  end
  begin
    id 12
    name upperback
    direction -0.016474699999999998 0.99519299999999999 -0.096537499999999998
    length 1.135656
    axis 0 0 0 xyz
    dof rx ry rz 
    limits (-20 45)
           (-30 30)
           (-30 30)
  end
  begin
    id 13
    name thorax
    direction -0.019430099999999999 0.99433000000000005 -0.10455200000000001
    length 1.1524455
    axis 0 0 0 xyz
    dof rx ry rz 
    limits (-20 45)
           (-30 30)
           (-30 30)
  end
  begin
    id 14
    name lowerneck
    direction 0.014854300000000001 0.995587 -0.092657000000000003
    length 0.772119
    axis 0 0 0 xyz
    dof rx ry rz 
    limits (-20 45)
           (-30 30)
           (-30 30)
  end
  begin
    id 15
    name upperneck
    direction -0.0135467 0.99365599999999998 -0.111639
    length 0.76021650000000007
    axis 0 0 0 xyz
    dof rx ry rz 
    limits (-20 45)
           (-30 30)
           (-30 30)
  end
  begin
    id 16
    name head
    direction -0.0061534900000000002 0.99954699999999996 -0.029447999999999998
    length 0.78578999999999999
    axis 0 0 0 xyz
    dof rx ry rz 
    limits (-20 45)
           (-30 30)
           (-30 30)
  end
  begin
    id 17
    name lclavicle
    direction 0.98826700000000001 0.14988499999999999 0.029371299999999999
    length 2.012499
    axis 0 0 0 xyz
    dof ry rz 
    limits (-20 10)
           (0 20)
  end
  begin
    id 18
    name lhumerus
    direction 1 -4.4898600000000001e-011 -1.1483300000000001e-027
    length 2.4171659999999999
    axis 180 -30 -90 xyz
    dof rx ry rz 
    limits (-60 90)
           (-90 90)
           (-90 90)
  end
  begin
    id 19
    name lradius
    direction 0.99999800000000005 0.00170963 -0.00098705499999999992
    length 1.773954
    axis 180 -30 -90 xyz
    dof rx 
    limits (-10 170)
  end
  begin
    id 20
    name lwrist
    direction 0.99999800000000005 7.53149e-005 -0.00194706
    length 0.88697700000000002
    axis 4.6505600000000004e-015 90 90 xyz
    dof ry 
    limits (-180 0)
  end
  begin
    id 21
    name lhand
    direction 1 -4.48973e-011 -1.3174599999999999e-026
    length 0.5306265
    axis 8.4064999999999996e-015 90 90 xyz
    dof rx rz 
    limits (-90 90)
           (-45 45)
  end
  begin
    id 22
    name lfingers
    direction 1 -4.49107e-011 -2.6349199999999999e-026
    length 0.42780555000000003
    axis 1.6812999999999999e-014 90 90 xyz
    dof rx 
    limits (0 90)
  end
  begin
    id 23
    name lthumb
    direction 0.70710700000000004 -6.3504800000000005e-011 0.70710700000000004
    length 0.6142455
    axis -90 45 2.8529899999999998e-015 xyz
    dof rx rz 
    limits (-45 45)
           (-45 45)
  end
  begin
    id 24
    name rclavicle
    direction -0.996699 0.064289499999999999 -0.049572499999999999
    length 2.0817494999999999
    axis 0 0 0 xyz
    dof ry rz 
    limits (-10 20)
           (-20 0)
  end
  begin
    id 25
    name rhumerus
    direction -1 -4.4891899999999998e-011 -2.4105900000000001e-027
    length 2.474145
    axis 180 30 90 xyz
    dof rx ry rz 
    limits (-90 60)
           (-90 90)
           (-90 90)
  end
  begin
    id 26
    name rradius
    direction -0.99999899999999997 0.0011810099999999999 -0.00068185800000000003
    length 1.5677145000000001
    axis 180 30 90 xyz
    dof rx 
    limits (-10 170)
  end
  begin
    id 27
    name rwrist
    direction -0.99999899999999997 0.000321823 -0.00132288
    length 0.78385499999999997
    axis 4.6505600000000004e-015 -90 -90 xyz
    dof ry 
    limits (-180 0)
  end
  begin
    id 28
    name rhand
    direction -1 -4.4902199999999998e-011 -1.3174599999999999e-026
    length 0.60719400000000001
    axis 8.4064999999999996e-015 -90 -90 xyz
    dof rx rz 
    limits (-90 90)
           (-45 45)
  end
  begin
    id 29
    name rfingers
    direction -1 -4.4917800000000002e-011 -2.6349199999999999e-026
    length 0.48953249999999998
    axis 1.6812999999999999e-014 -90 -90 xyz
    dof rx 
    limits (0 90)
  end
  begin
    id 30
    name rthumb
    direction -0.70710700000000004 -6.3471300000000002e-011 0.70710700000000004
    length 0.70287750000000004
    axis -90 -45 -2.8529899999999998e-015 xyz
    dof rx rz 
    limits (-45 45)
           (-45 45)
  end
:hierarchy
begin
  root lhipjoint rhipjoint lowerback 
  lhipjoint lfemur 
  lfemur ltibia 
  ltibia lfoot 
  lfoot ltoes 
  rhipjoint rfemur 
  rfemur rtibia 
  rtibia rfoot 
  rfoot rtoes 
  lowerback upperback 
  upperback thorax 
  thorax lowerneck lclavicle rclavicle 
  lowerneck upperneck 
  upperneck head 
  lclavicle lhumerus 
  lhumerus lradius 
  lradius lwrist 
  lwrist lhand lthumb 
  lhand lfingers 
  rclavicle rhumerus 
  rhumerus rradius 
  rradius rwrist 
  rwrist rhand rthumb 
  rhand rfingers 
end

# AMC file generated by Tido's AMC writer for MATLAB on 27-Nov-2005 at 18:24:20
# Corresponding ASF file: S:\data_MoCap\MoCaDaDB\HDM\Bonn_ASF_AMC_Use IK_on\björn\bjorn.asf
# Number of frames: 542
# Sampling rate: 120
:fully-specified
:degrees
305
root 6.9798600000000004 8.3925000000000001 -11.441609999999999 -2.4016600000000001 50.285800000000002 358.74900000000002 
lfemur -32.957900000000002 5.5636000000000001 -11.273300000000001 
ltibia 26.742999999999999 
lfoot -6.8906799999999997 -14.5707 
ltoes -26.619199999999999 
rfemur 9.8210099999999994 -3.17137 23.380600000000001 
rtibia 24.130099999999999 
rfoot -13.8316 31.385200000000001 
rtoes 19.084499999999998 
lowerback -1.41168 2.8742999999999999 4.1626500000000002 
upperback 10.423999999999999 3.9724300000000001 -1.64069 
thorax 12.4686 2.5386000000000002 -3.5943999999999998 
lowerneck 2.7066400000000002 -8.3629899999999999 1.1740999999999999 
upperneck 8.8816299999999995 -11.681699999999999 9.6913400000000003 
head 3.0015900000000002 -5.4495800000000001 2.7437200000000002 
lclavicle -8.0905400000000001e-014 2.7233499999999999e-014 
lhumerus -39.110799999999998 -9.6042100000000001 101.053 
lradius 18.5945 
lwrist -24.3246 
lhand -10.599 -9.6764399999999995 
lfingers 7.1250200000000001 
lthumb 15.406700000000001 19.729399999999998 
rclavicle -8.0905400000000001e-014 2.7233499999999999e-014 
rhumerus -23.4346 2.74857 -94.3506 
rradius 91.994100000000003 
rwrist 2.4778500000000001 
rhand -21.981999999999999 19.802399999999999 
rfingers 7.1250200000000001 
rthumb 4.4261299999999997 -10.131399999999999 
306
root 7.0451550000000003 8.38584 -11.404800000000002 -2.4712100000000001 49.801900000000003 358.46499999999997 
lfemur -33.5809 7.1072300000000004 -11.734299999999999 
ltibia 26.553000000000001 
lfoot -6.8610499999999996 -15.967599999999999 
ltoes -26.687899999999999 
rfemur 10.462300000000001 -3.1003699999999998 23.3521 
rtibia 23.617899999999999 
rfoot -13.4598 31.794899999999998 
rtoes 19.054099999999998 
lowerback -1.5263899999999999 2.9359000000000002 4.2922200000000004 
upperback 10.377700000000001 4.0397699999999999 -1.6625000000000001 
thorax 12.5076 2.58304 -3.6770700000000001 
lowerneck 2.7634599999999998 -8.3126999999999995 1.17215 
upperneck 8.9550800000000006 -11.618499999999999 9.7059999999999995 
head 3.01458 -5.4161400000000004 2.75271 
lclavicle -6.3611099999999997e-015 -7.9513900000000002e-016 
lhumerus -38.913600000000002 -9.7225300000000008 100.78700000000001 
lradius 18.3049 
lwrist -25.408200000000001 
lhand -10.536799999999999 -9.7946600000000004 
lfingers 7.1250200000000001 
lthumb 15.466699999999999 19.6066 
rclavicle -6.3611099999999997e-015 -7.9513900000000002e-016 
rhumerus -23.4374 2.6646700000000001 -94.289400000000001 
rradius 92.249300000000005 
rwrist 2.2888199999999999 
rhand -22.482800000000001 20.226900000000001 
rfingers 7.1250200000000001 
rthumb 3.94258 -9.7164199999999994 
307
root 7.1111250000000004 8.3760750000000002 -11.36727 -2.5582099999999999 49.309800000000003 358.15600000000001 
lfemur -34.009099999999997 6.7302299999999997 -11.414400000000001 
ltibia 26.415400000000002 
lfoot -6.9820799999999998 -15.3964 
ltoes -25.729800000000001 
rfemur 11.092599999999999 -2.8924099999999999 23.385400000000001 
rtibia 23.1538 
rfoot -12.960100000000001 32.116500000000002 
rtoes 19.4453 
lowerback -1.6776599999999999 2.99038 4.4080199999999996 
upperback 10.350099999999999 4.0948399999999996 -1.6601999999999999 
thorax 12.586600000000001 2.6195900000000001 -3.72472 
lowerneck 2.8462200000000002 -8.2502300000000002 1.1356599999999999 
upperneck 8.9504199999999994 -11.5334 9.7389299999999999 
head 2.9985200000000001 -5.3773200000000001 2.77616 
lclavicle -6.9077700000000005e-014 1.74931e-014 
lhumerus -38.487699999999997 -9.2021999999999995 100.17100000000001 
lradius 17.834599999999998 
lwrist -27.224699999999999 
lhand -10.453099999999999 -9.9938500000000001 
lfingers 7.1250200000000001 
lthumb 15.5473 19.401199999999999 
rclavicle -6.9077700000000005e-014 1.74931e-014 
rhumerus -23.372199999999999 2.5732499999999998 -94.3078 
rradius 92.351799999999997 
rwrist 2.1275599999999999 
rhand -22.777200000000001 20.288799999999998 
rfingers 7.1250200000000001 
rthumb 3.65828 -9.6595300000000002 
308
root 7.1775450000000003 8.3651850000000003 -11.329605000000001 -2.6366700000000001 48.8157 357.85300000000001 
lfemur -34.317799999999998 6.36876 -11.052199999999999 
ltibia 26.3353 
lfoot -6.9848800000000004 -14.734500000000001 
ltoes -24.5291 
rfemur 11.738 -2.6790400000000001 23.415299999999998 
rtibia 22.693200000000001 
rfoot -12.507899999999999 32.381300000000003 
rtoes 19.576899999999998 
lowerback -1.8244800000000001 3.0472000000000001 4.5397400000000001 
upperback 10.3172 4.1531799999999999 -1.67336 
thorax 12.660500000000001 2.66025 -3.79786 
lowerneck 2.8861500000000002 -8.1907599999999992 1.1054999999999999 
upperneck 9.0029900000000005 -11.4604 9.7848299999999995 
head 3.01118 -5.3398399999999997 2.8003 
lclavicle 8.4781700000000003e-014 -2.0276000000000001e-014 
lhumerus -38.128500000000003 -9.0960400000000003 99.634399999999999 
lradius 17.478899999999999 
lwrist -28.612200000000001 
lhand -10.313499999999999 -10.114100000000001 
lfingers 7.1250200000000001 
lthumb 15.681800000000001 19.270399999999999 
rclavicle 8.4781700000000003e-014 -2.0276000000000001e-014 
rhumerus -23.193000000000001 2.4015900000000001 -94.380499999999998 
rradius 92.148700000000005 
rwrist 2.1525400000000001 
rhand -23.038799999999998 20.372299999999999 
rfingers 7.1250200000000001 
rthumb 3.4056099999999998 -9.5802099999999992 
